. 
  
http://www.torrenting.com/        :     Greatest Movie Tracker on The Net!!!
 
http://www.Torrenting.com          :     Once & For all ;)


               www . Torrenting . Com 

(((((((((((((= Enjoy No RAR releases =))))))))))))))))))))


...................................NFO:....................................

.








































          
          
              
              
                    
                    
                    
                    


Poster:
[img]http://img703.imageshack.us/img703/3040/squaregrouper2011bydire.jpg[/img]

IMDB Link: 
http://www.imdb.com/title/tt1466067/

Description:
A colorful portrait of Miami's pot smuggling scene of the 1970s, populated with redneck pirates, a ganja-smoking church, and the longest serving marijuana prisoner in American history.  

MediaInfo:
General
Complete name                    : C:\Movies\Square.Grouper.2011.DVDRiP.XviD-SiC.avi
Format                           : AVI
Format/Info                      : Audio Video Interleave
File size                        : 1.50 GiB
Duration                         : 1h 40mn
Overall bit rate                 : 2 129 Kbps

Video
ID                               : 0
Format                           : MPEG-4 Visual
Format profile                   : Advanced Simple@L5
Format settings, BVOP            : 1
Format settings, QPel            : No
Format settings, GMC             : No warppoints
Format settings, Matrix          : Default (H.263)
Codec ID                         : XVID
Codec ID/Hint                    : XviD
Duration                         : 1h 40mn
Bit rate                         : 1 672 Kbps
Width                            : 720 pixels
Height                           : 400 pixels
Display aspect ratio             : 16:9
Frame rate                       : 29.970 fps
Color space                      : YUV
Chroma subsampling               : 4:2:0
Bit depth                        : 8 bits
Scan type                        : Progressive
Compression mode                 : Lossy
Bits/(Pixel*Frame)               : 0.194
Stream size                      : 1.18 GiB (79%)
Writing library                  : XviD 1.2.1 (UTC 2008-12-04)

Audio
ID                               : 1
Format                           : AC-3
Format/Info                      : Audio Coding 3
Mode extension                   : CM (complete main)
Codec ID                         : 2000
Duration                         : 1h 40mn
Bit rate mode                    : Constant
Bit rate                         : 448 Kbps
Channel(s)                       : 6 channels
Channel positions                : Front: L C R, Side: L R, LFE
Sampling rate                    : 48.0 KHz
Bit depth                        : 16 bits
Compression mode                 : Lossy
Stream size                      : 322 MiB (21%)
Alignment                        : Aligned on interleaves
Interleave, duration             : 64 ms (1.92 video frames)
Interleave, preload duration     : 192 ms
Title                            : VTS_01_1 T80 3_2ch 448Kbps DELAY 0ms

Screenshots:
[img]http://img16.imageshack.us/img16/828/vlcsnap2011090322h21m29.png[/img]
[img]http://img3.imageshack.us/img3/6142/vlcsnap2011090322h21m42.png[/img]
[img]http://img52.imageshack.us/img52/6933/vlcsnap2011090322h21m48.png[/img]
[img]http://img197.imageshack.us/img197/5254/vlcsnap2011090322h21m59.png[/img]
[img]http://img98.imageshack.us/img98/1723/vlcsnap2011090322h22m04.png[/img]


Note : N/A

Source: Our own

Enjoy!

Respects to CaptainHomey, Cyanide, CM8, Rx, THC, ELEKTRI4KA, 
Killerhz, PA, YeFsTe, BoxSlots, MrRep and everyone in the struggle...